<?xml version="1.0" encoding="UTF-8"?>
<svg version="1.1" xmlns="http://www.w3.org/2000/svg" width="200" height="200">
<path d="M0 0 C66 0 132 0 200 0 C200 66 200 132 200 200 C134 200 68 200 0 200 C0 134 0 68 0 0 Z " fill="#F1F1F1" transform="translate(0,0)"/>
<path d="M0 0 C1.66869141 -0.03867187 1.66869141 -0.03867187 3.37109375 -0.078125 C6.91096834 0.28582783 8.79298541 1.03438833 11.5625 3.25 C11.5625 4.24 11.5625 5.23 11.5625 6.25 C12.5525 5.59 13.5425 4.93 14.5625 4.25 C18.5711525 3.79619028 20.93418595 3.93584297 24.5625 5.75 C38.85211293 17.65801078 50.96359911 38.84069817 53.5625 57.25 C53.81479883 60.75659289 53.84364686 64.23559605 53.8125 67.75 C53.82023438 68.62269531 53.82796875 69.49539062 53.8359375 70.39453125 C53.81158569 78.61326825 52.93191921 86.38775729 48.9375 93.6875 C45.59912797 100.68030296 45.52545608 107.30120328 47.5 114.75 C48.5575576 117.24136164 49.20857197 118.06365153 51.625 119.3359375 C53.96996705 120.15232023 53.96996705 120.15232023 56.30859375 120.6796875 C58.6096965 121.26194227 60.48192669 122.12203543 62.5625 123.25 C62.84908179 126.23352114 62.97764891 127.71891855 61.09375 130.12890625 C52.98237441 136.85198871 47.28533747 140.04102899 36.5625 139.25 C36.5625 140.24 36.5625 141.23 36.5625 142.25 C37.43745117 142.53214355 38.31240234 142.81428711 39.21386719 143.10498047 C42.25837959 144.14601015 45.18343499 145.30593271 48.140625 146.5703125 C62.8712302 152.77659679 77.54907098 158.0439939 92.9230957 162.46313477 C95.82289922 163.32763081 98.69185679 164.29311893 101.5625 165.25 C101.5625 169.87 101.5625 174.49 101.5625 179.25 C35.5625 179.25 -30.4375 179.25 -98.4375 179.25 C-98.4375 174.63 -98.4375 170.01 -98.4375 165.25 C-83.44433967 159.15902861 -68.28502632 153.79220478 -52.90917969 148.76513672 C-44.00790146 145.92516574 -44.00790146 145.92516574 -35.4375 142.25 C-35.1075 141.59 -34.7775 140.93 -34.4375 140.25 C-35.9225 140.10304687 -35.9225 140.10304687 -37.4375 139.953125 C-46.61145377 138.95522374 -54.24242987 137.98210262 -60.75 130.9375 C-63.98657972 126.80776576 -66.70263413 122.74226084 -66.125 117.3125 C-65.898125 116.631875 -65.67125 115.95125 -65.4375 115.25 C-62.67473823 115.77268466 -60.1114124 116.35869587 -57.4375 117.25 C-55.73117352 117.34267588 -54.02133413 117.37998202 -52.3125 117.375 C-51.42304687 117.37757813 -50.53359375 117.38015625 -49.6171875 117.3828125 C-47.45958912 117.49301985 -47.45958912 117.49301985 -46.4375 116.25 C-45.82963214 108.22107869 -47.79838314 101.38045174 -49.9375 93.6875 C-54.35354963 76.78046361 -54.90353411 63.62744846 -48.4375 47.25 C-48.0780127 46.33669922 -47.71852539 45.42339844 -47.34814453 44.48242188 C-40.0768783 26.32368221 -33.19275269 11.42100453 -14.5 2.8125 C-9.58453656 0.76362458 -5.34792743 0.0741909 0 0 Z " fill="#B8B8B8" transform="translate(98.4375,20.75)"/>
</svg>
